<svg width="199" height="101" viewBox="0 0 199 101" fill="none" xmlns="http://www.w3.org/2000/svg">
<path d="M187.6 17H190.7C196.8 17 198.6 21.7 198.6 25.7C198.6 29.8 196.7 34.4 190.7 34.4H187.6V51.9H167.6V9.9C167.6 3.4 172.3 0 177.6 0C182.9 0 187.6 3.4 187.6 9.9V17ZM153.9 49.4H113.6C105.1 49.4 102.4 46.1 102.4 38.4V13.9C102.4 6.2 105.1 3 113.6 3H149.6C155.4 3 157.1 7 157.1 10.7C157.1 14.4 155.3 18.5 149.6 18.5H123.5C122.1 18.5 121.5 19.1 121.5 20.4V32.2C121.5 33.5 122.1 34.1 123.5 34.1H153.9C159.7 34.1 161.2 38.2 161.2 41.8C161.2 45.6 159.6 49.4 153.9 49.4ZM120.3 55.4H174.2C186 55.4 188.2 59 188.2 70.1V93.9H120.3C108.2 93.9 106 90.3 106 78.9V70.4C106 59 108.2 55.4 120.3 55.4ZM128 80H168.5V71.6C168.5 69.6 168 69.1 166.2 69.1H128C126.2 69.1 125.7 69.6 125.7 71.6V77.5C125.7 79.7 126.2 80 128 80Z" fill="#02C551"/>
<path d="M105.3 60.2998C105.3 57.5384 107.539 55.2998 110.3 55.2998H184.3C187.061 55.2998 189.3 57.5384 189.3 60.2998V92.7906C189.3 93.7335 188.829 94.6139 188.044 95.1369C187.882 95.2452 187.709 95.3363 187.527 95.4089L185.3 96.2998L178.8 98.7998L177.214 99.2323C175.781 99.6231 174.596 98.0784 175.344 96.7953C175.99 95.6891 175.192 94.2998 173.911 94.2998H110.3C107.539 94.2998 105.3 92.0612 105.3 89.2998V60.2998Z" fill="#02C551"/>
<path d="M126.3 65.7998H168.3" stroke="white" stroke-width="4" stroke-linecap="round"/>
<path d="M126.3 74.7998H168.3" stroke="white" stroke-width="4" stroke-linecap="round"/>
<path d="M126.3 83.7998H155.3" stroke="white" stroke-width="4" stroke-linecap="round"/>
<path d="M87.6 17H90.7C96.8 17 98.6 21.7 98.6 25.7C98.6 29.8 96.7 34.4 90.7 34.4H87.6V51.4H67.6V9.9C67.6 3.4 72.3 0 77.6 0C82.9 0 87.6 3.4 87.6 9.9V17ZM33.9 38.8C28.1 46.8 18.8 51.6 9.2 51.6C4.3 51.6 0 48.7 0 43.6C0 39.6 2.3 36.9 6.3 36.3C15.7 35 20.6 28.9 20.6 20.9V18.9H8C3.3 18.9 0.7 14.7 0.7 11.1C0.7 7.5 2.9 3.2 8 3.2H53.8C58.9 3.2 61.1 7.5 61.1 11.1C61.1 14.7 58.5 18.9 53.8 18.9H39.5V20.9C39.5 22.4 39.4 23.8 39.2 25.2C54.4 25.4 62.1 33.8 61.7 50.9H43C43.7 44 40 38.6 33.9 38.8ZM78.3 54.3C84.1 54.3 88.2 57.2 88.2 63.7V93.9H20.1C9.1 93.9 6.1 90 6.1 79.9V63.7C6.1 57.1 10.4 54.3 16.2 54.3C21.6 54.3 25.5 56.8 26 62.3H68.3C68.8 56.7 72.9 54.3 78.3 54.3ZM28.6 80.9H68.2V74.7H26.1V78.6C26.1 80.6 26.6 80.9 28.6 80.9Z" fill="#02C551"/>
</svg>
